<?xml version="1.0" encoding="UTF-8" standalone="no"?>
<svg xmlns="http://www.w3.org/2000/svg" width="48" height="48" viewBox="0 0 12.7 12.7">
  <path d="m 4.76,11.37 h 5.56 V 6.88 h 1.06 V 6.35 L 6.35,1.32 1.32,6.35 V 6.88 H 2.38 v 4.5 h 0.8" style="fill:none;fill-rule:evenodd;stroke:#000;stroke-width:0.53;stroke-linecap:round;stroke-linejoin:round;stroke-miterlimit:4;stroke-dasharray:none;stroke-opacity:1" />
  <path d="M 8.28,5.41 A 1.59,1.59 0 0 0 6.34,6.0 1.59,1.59 0 0 0 5.02,5.3 a 1.59,1.59 0 0 0 0,3.17 1.59,1.59 0 0 0 1.32,-0.71 1.59,1.59 0 0 0 1.32,0.71 1.59,1.59 0 0 0 1.46,-2.21" style="fill:none;fill-opacity:1;stroke:#000;stroke-width:0.53;stroke-linecap:round;stroke-linejoin:round;stroke-miterlimit:4;stroke-dasharray:none;stroke-dashoffset:0;stroke-opacity:1;paint-order:markers fill stroke" />
</svg>